<svg width="74" height="32" viewBox="0 0 74 32" fill="none" xmlns="http://www.w3.org/2000/svg">
<path fill-rule="evenodd" clip-rule="evenodd" d="M37.8685 16.0015C38.9228 16.0015 39.7703 16.3148 40.4121 16.9415C41.054 17.5683 41.3749 18.5137 41.3749 19.7791V24.6375H38.4003V20.265C38.4003 19.1045 37.9362 18.5256 37.0079 18.5256C36.496 18.5256 36.0862 18.6929 35.7785 19.0275C35.4708 19.3621 35.317 19.864 35.317 20.5319V24.6388H32.3424V16.1435H33.7588L35.1751 17.0677C35.5093 16.7225 35.9058 16.4596 36.3647 16.2763C36.8235 16.0931 37.3248 16.0028 37.8672 16.0028L37.8685 16.0015Z" fill="#613992"/>
<path fill-rule="evenodd" clip-rule="evenodd" d="M52.2298 16.1419V23.0849C52.2298 29.1902 45.3046 29.7983 41.8141 26.8944L43.0832 24.6212C45.0406 26.5319 49.2552 26.6487 49.2552 23.1951C48.681 23.8644 47.8415 24.199 46.7355 24.199C45.9836 24.199 45.29 24.029 44.6534 23.6891C44.0168 23.3492 43.5103 22.8685 43.1349 22.2471C42.7596 21.6257 42.5713 20.9073 42.5713 20.0921C42.5713 19.2768 42.7596 18.5744 43.1349 17.953C43.5103 17.3316 44.0168 16.8509 44.6534 16.511C45.29 16.1711 45.9849 16.0024 46.7355 16.0024C47.9463 16.0024 48.8335 16.3941 49.3971 17.1775L50.8134 16.1432H52.2298V16.1419ZM47.4397 21.8315C47.9715 21.8315 48.4131 21.6695 48.7619 21.3455C49.112 21.0215 49.2857 20.6033 49.2857 20.0921C49.2857 19.5809 49.1133 19.1653 48.7685 18.8466C48.4237 18.5279 47.9808 18.3686 47.4384 18.3686C46.896 18.3686 46.449 18.5279 46.1003 18.8466C45.7501 19.1653 45.5764 19.5809 45.5764 20.0921C45.5764 20.6033 45.7541 21.0215 46.1082 21.3455C46.4636 21.6695 46.9066 21.8315 47.4384 21.8315H47.4397Z" fill="#613992"/>
<path fill-rule="evenodd" clip-rule="evenodd" d="M57.4955 16.0015C58.9039 16.0015 59.9794 16.3228 60.7207 16.9654C61.4621 17.6081 61.8321 18.5933 61.8321 19.9198V24.6375H60.4462L59.0604 23.5407C58.632 24.3666 57.7979 24.7782 56.5553 24.7782C55.8975 24.7782 55.3286 24.664 54.8485 24.433C54.3684 24.2033 54.0064 23.8926 53.761 23.5009C53.5157 23.1092 53.3937 22.6617 53.3937 22.1611C53.3937 21.3565 53.7013 20.7324 54.318 20.2889C54.9334 19.8441 55.8829 19.6224 57.1666 19.6224H58.8575C58.8058 18.7235 58.205 18.2747 57.0579 18.2747C56.6507 18.2747 56.2383 18.3397 55.8219 18.4712C55.4041 18.6013 55.0501 18.7819 54.757 19.0116L53.7557 16.9893C54.2252 16.676 54.7968 16.433 55.4691 16.2604C56.1428 16.0878 56.8178 16.0015 57.4968 16.0015H57.4955ZM57.3854 22.8981C57.7302 22.8981 58.0326 22.8144 58.2939 22.6471C58.5551 22.4798 58.7421 22.2342 58.8575 21.9102V21.1732H57.5737C56.7078 21.1732 56.2741 21.4614 56.2741 22.035C56.2741 22.2966 56.3736 22.505 56.5712 22.6617C56.7688 22.8184 57.0406 22.8967 57.3854 22.8967V22.8981Z" fill="#613992"/>
<path fill-rule="evenodd" clip-rule="evenodd" d="M61.0248 27.3792L61.7767 25.2627C62.6666 25.8111 63.5763 25.5243 63.5763 24.401V17.6305H62.7514V16.1407H66.5509V24.4169C66.5509 27.7444 63.3111 28.6871 61.0248 27.3792ZM65.0643 15.2006C64.1134 15.2006 63.2488 14.38 63.2488 13.3576C63.2488 12.3352 64.1134 11.5146 65.0643 11.5146C66.0151 11.5146 66.8798 12.2848 66.8798 13.3112C66.8798 14.3376 66.0456 15.2006 65.0643 15.2006Z" fill="#613992"/>
<path fill-rule="evenodd" clip-rule="evenodd" d="M68.2019 16.1422H71.1765V24.6374H68.2019V17.632H67.377V16.1422H68.2019ZM69.6899 15.2021C68.739 15.2021 67.8743 14.3815 67.8743 13.3591C67.8743 12.3367 68.7403 11.5161 69.6899 11.5161C70.6394 11.5161 71.5054 12.2862 71.5054 13.3126C71.5054 14.339 70.6712 15.2021 69.6899 15.2021Z" fill="#613992"/>
<path fill-rule="evenodd" clip-rule="evenodd" d="M2.47052 1.4873H10.8413C13.0719 1.4873 14.9537 2.53361 15.9802 4.0712C17.0066 2.53361 18.8885 1.4873 21.1191 1.4873H29.4898V26.9824H21.1191C18.7492 26.9824 16.6207 29.4415 15.9802 30.444C15.3556 29.4136 13.2111 26.9824 10.8413 26.9824H2.47052V1.4873ZM15.9802 8.13295C15.3556 7.10257 13.2111 4.67137 10.8413 4.67137H5.65066V23.797H10.8413C13.0719 23.797 14.9537 24.8433 15.9802 26.3809C17.0066 24.8433 18.8885 23.797 21.1191 23.797H26.3097V4.67269H21.1191C18.7492 4.67269 16.6207 7.13177 15.9802 8.13426V8.13295Z" fill="#613992"/>
<path fill-rule="evenodd" clip-rule="evenodd" d="M11.348 12.4854C11.348 11.1696 10.3441 10.114 8.16785 10.3742V12.4854C8.16785 14.8011 9.17308 16.8818 10.7711 18.3145C12.3068 19.8521 15.048 20.5638 15.9816 23.5314C16.9153 20.5638 19.6564 19.8521 21.1921 18.3145C22.7888 16.8818 23.7954 14.8025 23.7954 12.4854V10.3742C21.6178 10.114 20.6153 11.1696 20.6153 12.4854C20.6153 15.0468 18.5411 17.1235 15.983 17.1235C13.4248 17.1235 11.3506 15.0468 11.3506 12.4854H11.348ZM15.9803 9.43945C17.6606 9.43945 19.0225 10.8031 19.0225 12.4854C19.0225 14.1678 17.6606 15.5314 15.9803 15.5314C14.3001 15.5314 12.9381 14.1678 12.9381 12.4854C12.9381 10.8031 14.3001 9.43945 15.9803 9.43945Z" fill="#613992"/>
<path d="M43.3738 10.5346H41.3421V9.08732H45.5235C45.4811 9.60384 45.4798 10.1164 45.3922 10.6143C44.9599 13.0707 42.9839 14.433 40.9045 14.7013C39.7865 14.846 38.6765 14.8115 37.5838 14.518C35.8186 14.044 34.6689 12.8755 34.0548 11.2038C33.3268 9.22143 33.4302 7.26691 34.5734 5.44517C35.45 4.04566 36.7456 3.27421 38.3821 3.07106C39.8833 2.88517 41.3182 3.05645 42.6285 3.87438C42.8765 4.02973 43.1059 4.21297 43.3738 4.40683V3.19454H44.8193V6.93363C44.3698 6.93363 43.9135 6.93761 43.4573 6.92832C43.4109 6.92832 43.3526 6.85264 43.3221 6.79952C42.6789 5.64434 41.7214 4.87421 40.4284 4.6206C38.0612 4.1572 36.182 5.36019 35.6343 7.71703C35.3585 8.90409 35.4447 10.0938 36.0653 11.172C36.8093 12.4652 37.9538 13.1637 39.4523 13.2526C40.6141 13.3217 41.6432 12.9911 42.5065 12.2023C42.9879 11.7615 43.277 11.2091 43.3738 10.536V10.5346Z" fill="black"/>
<path d="M55.263 10.6554C55.3373 13.1676 53.2539 14.8446 51.083 14.8406C48.786 14.8367 46.8353 13.0415 46.9095 10.4788C46.9758 8.19632 48.7673 6.41574 51.1054 6.42238C53.3585 6.42902 55.3559 8.16047 55.263 10.6554ZM48.5619 10.6142C48.5898 10.8453 48.6017 11.079 48.6455 11.3074C49.0035 13.1344 51.2461 13.9324 52.6744 12.7387C53.4462 12.0947 53.673 11.245 53.596 10.2703C53.4714 8.67964 51.8574 7.59217 50.3337 8.06089C49.3987 8.34769 48.5354 9.36877 48.5619 10.6156V10.6142Z" fill="black"/>
</svg>
